<svg width="45" height="53" viewBox="0 0 45 53" fill="none" xmlns="http://www.w3.org/2000/svg">
<g filter="url(#filter0_b_174_82)">
<path d="M18.3473 36.4684L11.2852 38.8218C9.76942 44.0546 12.7556 46.0583 13.5413 44.3042" stroke="white" stroke-width="4" stroke-linecap="round" stroke-linejoin="round"/>
<path d="M31.9634 24.2714C37.3378 25.6608 41.1181 23.9932 42.6744 18.0637" stroke="white" stroke-width="4" stroke-linecap="round" stroke-linejoin="round"/>
<path d="M11.5794 18.6512C5.72749 18.9941 2.76826 22.04 2.45752 27.5603" stroke="white" stroke-width="4" stroke-linecap="round" stroke-linejoin="round"/>
<path d="M0.164249 27.4317C0.138819 27.8841 0.248373 28.3339 0.479058 28.7241C0.709742 29.1144 1.0512 29.4277 1.46025 29.6243C1.8693 29.8209 2.32758 29.892 2.77713 29.8287C3.22669 29.7653 3.64733 29.5704 3.98588 29.2685C4.32442 28.9665 4.56566 28.5712 4.6791 28.1325C4.79254 27.6937 4.77307 27.2312 4.62316 26.8035C4.47326 26.3758 4.19964 26.0021 3.83692 25.7295C3.4742 25.457 3.03865 25.298 2.58536 25.2725C2.28433 25.2556 1.9829 25.298 1.6983 25.3974C1.4137 25.4967 1.1515 25.651 0.926676 25.8516C0.701848 26.0521 0.518798 26.2948 0.38798 26.5659C0.257161 26.837 0.181137 27.1312 0.164249 27.4317Z" fill="white"/>
<path d="M18.0552 10.2321V13.5604" stroke="white" stroke-width="4" stroke-linecap="round" stroke-linejoin="round"/>
<path d="M26.6875 10.2321V13.5604" stroke="white" stroke-width="4" stroke-linecap="round" stroke-linejoin="round"/>
<path d="M28.3535 18.8471C25.0978 20.871 21.8573 21.261 18.6421 18.8471" stroke="white" stroke-width="4" stroke-linecap="round" stroke-linejoin="round"/>
<path d="M19.6355 17.5284C19.3742 17.3323 19.0606 17.2179 18.7342 17.1997C18.4078 17.1814 18.0833 17.2602 17.8018 17.426C17.5203 17.5918 17.2943 17.8372 17.1525 18.1311C17.0106 18.4251 16.9593 18.7544 17.005 19.0774C17.0507 19.4005 17.1913 19.7028 17.409 19.9461C17.6268 20.1894 17.912 20.3628 18.2285 20.4444C18.545 20.526 18.8786 20.5121 19.1872 20.4044C19.4958 20.2968 19.7655 20.1003 19.9622 19.8397C20.2259 19.4899 20.3397 19.0499 20.2784 18.6165C20.2171 18.1831 19.9859 17.7916 19.6355 17.5284Z" fill="white"/>
<g filter="url(#filter1_d_174_82)">
<path d="M35.0226 37.6436L32.0803 42.5386C19.3243 34.0867 12.1634 24.6232 10.5977 14.148C10.5975 12.5665 10.9096 11.0005 11.5159 9.53944C12.1222 8.07834 13.011 6.75076 14.1314 5.63249C15.2519 4.51423 16.5821 3.6272 18.046 3.02205C19.51 2.41691 21.0791 2.1055 22.6636 2.10561C25.1998 2.10164 27.6722 2.89895 29.7265 4.38331C33.3771 7.01821 35.1767 11.5333 34.4955 15.9819C34.0289 19.0219 31.9632 24.2749 31.9632 24.2749C31.9632 24.2749 28.353 29.9255 25.606 32.0637" stroke="white" stroke-width="4" stroke-linecap="round" stroke-linejoin="round" shape-rendering="crispEdges"/>
</g>
</g>
<defs>
<filter id="filter0_b_174_82" x="-0.839355" y="-0.894409" width="46.5142" height="48.8199" filterUnits="userSpaceOnUse" color-interpolation-filters="sRGB">
<feFlood flood-opacity="0" result="BackgroundImageFix"/>
<feGaussianBlur in="BackgroundImageFix" stdDeviation="0.5"/>
<feComposite in2="SourceAlpha" operator="in" result="effect1_backgroundBlur_174_82"/>
<feBlend mode="normal" in="SourceGraphic" in2="effect1_backgroundBlur_174_82" result="shape"/>
</filter>
<filter id="filter1_d_174_82" x="4.59766" y="0.105591" width="36.4253" height="52.433" filterUnits="userSpaceOnUse" color-interpolation-filters="sRGB">
<feFlood flood-opacity="0" result="BackgroundImageFix"/>
<feColorMatrix in="SourceAlpha" type="matrix" values="0 0 0 0 0 0 0 0 0 0 0 0 0 0 0 0 0 0 127 0" result="hardAlpha"/>
<feOffset dy="4"/>
<feGaussianBlur stdDeviation="2"/>
<feComposite in2="hardAlpha" operator="out"/>
<feColorMatrix type="matrix" values="0 0 0 0 0 0 0 0 0 0 0 0 0 0 0 0 0 0 0.25 0"/>
<feBlend mode="normal" in2="BackgroundImageFix" result="effect1_dropShadow_174_82"/>
<feBlend mode="normal" in="SourceGraphic" in2="effect1_dropShadow_174_82" result="shape"/>
</filter>
</defs>
</svg>
